<svg width="118" height="119" viewBox="0 0 118 119" fill="none" xmlns="http://www.w3.org/2000/svg">
<path d="M16.945 0.98291L0 47.3469L11.45 51.1769L1.315 69.9329L18.529 83.5259L16.945 88.8309L9.437 115.124L45.289 102.167L69.839 118.017L114.922 99.9599L117.027 32.1789L96.109 52.5849V96.5689H21.969V22.4289H96.109V52.5809L117.027 32.1789L80.215 2.89691L66.076 18.7939L55.246 5.50691L16.945 0.98291ZM22.969 23.4289V95.5689H95.109V23.4289H22.969ZM61.844 32.0689H67.937V49.9289C67.9641 51.375 67.7381 52.8147 67.269 54.1829C66.8678 55.3205 66.212 56.3514 65.3517 57.1969C64.4914 58.0425 63.4493 58.6804 62.305 59.0619C61.0052 59.4998 59.6404 59.7135 58.269 59.6939L58.355 59.7409C56.4961 59.8021 54.653 59.3822 53.004 58.5219C51.6483 57.7946 50.4411 56.8194 49.445 55.6469L53.211 51.4399C53.898 52.2179 54.695 52.8899 55.578 53.4399C56.3641 53.9283 57.2736 54.1816 58.199 54.1699C58.6935 54.1947 59.1876 54.1131 59.6479 53.9306C60.1082 53.7481 60.5239 53.4689 60.867 53.1119C61.6018 52.1196 61.9492 50.8932 61.844 49.6629V32.0689ZM31.637 32.0969H45.277V37.0929H41.461V54.3539H45.277V59.3539H31.637V54.3539H35.461V37.0929H31.637V32.0969ZM31.586 82.2449H59.016V86.8189H31.586V82.2449Z" fill="white"/>
</svg>
